<mxfile host="app.diagrams.net" agent="Mozilla/5.0 (Windows NT 10.0; Win64; x64) AppleWebKit/537.36 (KHTML, like Gecko) Chrome/140.0.0.0 Safari/537.36" version="28.2.3">
  <diagram name="Page-1" id="T6jo27jkNInZb8w3Gax7">
    <mxGraphModel dx="1426" dy="743" grid="1" gridSize="10" guides="1" tooltips="1" connect="1" arrows="1" fold="1" page="1" pageScale="1" pageWidth="1169" pageHeight="827" background="none" math="0" shadow="1">
      <root>
        <mxCell id="0" />
        <mxCell id="1" parent="0" />
        <mxCell id="h0Fku7poz1h-A2aGiFPx-1" value="BTT PICO" style="swimlane;whiteSpace=wrap;html=1;startSize=40;labelBackgroundColor=none;fillColor=#A8DADC;strokeColor=#457B9D;fontColor=#1D3557;" vertex="1" parent="1">
          <mxGeometry x="400" y="40" width="80" height="80" as="geometry" />
        </mxCell>
        <mxCell id="h0Fku7poz1h-A2aGiFPx-2" value="BTT EBB42" style="swimlane;whiteSpace=wrap;html=1;startSize=40;labelBackgroundColor=none;fillColor=#A8DADC;strokeColor=#457B9D;fontColor=#1D3557;" vertex="1" parent="1">
          <mxGeometry x="400" y="200" width="80" height="80" as="geometry" />
        </mxCell>
        <mxCell id="h0Fku7poz1h-A2aGiFPx-3" value="RPI 3B+" style="swimlane;whiteSpace=wrap;html=1;startSize=40;labelBackgroundColor=none;fillColor=#A8DADC;strokeColor=#457B9D;fontColor=#1D3557;" vertex="1" parent="1">
          <mxGeometry x="40" y="200" width="80" height="80" as="geometry" />
        </mxCell>
        <mxCell id="h0Fku7poz1h-A2aGiFPx-4" value="BTT EDDY" style="swimlane;whiteSpace=wrap;html=1;startSize=40;labelBackgroundColor=none;fillColor=#A8DADC;strokeColor=#457B9D;fontColor=#1D3557;" vertex="1" parent="1">
          <mxGeometry x="400" y="360" width="80" height="80" as="geometry" />
        </mxCell>
        <mxCell id="h0Fku7poz1h-A2aGiFPx-8" style="edgeStyle=orthogonalEdgeStyle;rounded=0;orthogonalLoop=1;jettySize=auto;html=1;exitX=0;exitY=0.25;exitDx=0;exitDy=0;entryX=1;entryY=0.25;entryDx=0;entryDy=0;labelBackgroundColor=none;strokeColor=#457B9D;fontColor=default;" edge="1" parent="1" source="h0Fku7poz1h-A2aGiFPx-5" target="h0Fku7poz1h-A2aGiFPx-7">
          <mxGeometry relative="1" as="geometry" />
        </mxCell>
        <mxCell id="h0Fku7poz1h-A2aGiFPx-10" style="edgeStyle=orthogonalEdgeStyle;rounded=0;orthogonalLoop=1;jettySize=auto;html=1;exitX=1;exitY=0.25;exitDx=0;exitDy=0;entryX=0;entryY=0.25;entryDx=0;entryDy=0;labelBackgroundColor=none;strokeColor=#457B9D;fontColor=default;" edge="1" parent="1" source="h0Fku7poz1h-A2aGiFPx-5" target="h0Fku7poz1h-A2aGiFPx-1">
          <mxGeometry relative="1" as="geometry" />
        </mxCell>
        <mxCell id="h0Fku7poz1h-A2aGiFPx-11" style="edgeStyle=orthogonalEdgeStyle;rounded=0;orthogonalLoop=1;jettySize=auto;html=1;exitX=1;exitY=0.25;exitDx=0;exitDy=0;entryX=0;entryY=0.25;entryDx=0;entryDy=0;labelBackgroundColor=none;strokeColor=#457B9D;fontColor=default;" edge="1" parent="1" source="h0Fku7poz1h-A2aGiFPx-5" target="h0Fku7poz1h-A2aGiFPx-2">
          <mxGeometry relative="1" as="geometry" />
        </mxCell>
        <mxCell id="h0Fku7poz1h-A2aGiFPx-5" value="24V PSU" style="swimlane;whiteSpace=wrap;html=1;startSize=40;labelBackgroundColor=none;fillColor=#A8DADC;strokeColor=#457B9D;fontColor=#1D3557;" vertex="1" parent="1">
          <mxGeometry x="200" y="40" width="80" height="80" as="geometry">
            <mxRectangle x="200" y="40" width="90" height="40" as="alternateBounds" />
          </mxGeometry>
        </mxCell>
        <mxCell id="h0Fku7poz1h-A2aGiFPx-9" style="edgeStyle=orthogonalEdgeStyle;rounded=0;orthogonalLoop=1;jettySize=auto;html=1;exitX=0.25;exitY=1;exitDx=0;exitDy=0;entryX=0.25;entryY=0;entryDx=0;entryDy=0;labelBackgroundColor=none;strokeColor=#457B9D;fontColor=default;" edge="1" parent="1" source="h0Fku7poz1h-A2aGiFPx-7" target="h0Fku7poz1h-A2aGiFPx-3">
          <mxGeometry relative="1" as="geometry" />
        </mxCell>
        <mxCell id="h0Fku7poz1h-A2aGiFPx-7" value="24V-5V Stepdown" style="swimlane;whiteSpace=wrap;html=1;startSize=40;labelBackgroundColor=none;fillColor=#A8DADC;strokeColor=#457B9D;fontColor=#1D3557;" vertex="1" parent="1">
          <mxGeometry x="40" y="40" width="80" height="80" as="geometry" />
        </mxCell>
      </root>
    </mxGraphModel>
  </diagram>
</mxfile>
